<svg id="Layer_1" enable-background="new 0 0 66 66" height="300" viewBox="0 0 66 66" width="300" xmlns="http://www.w3.org/2000/svg" version="1.1" xmlns:xlink="http://www.w3.org/1999/xlink" xmlns:svgjs="http://svgjs.dev/svgjs"><g width="100%" height="100%" transform="matrix(1,0,0,1,0,0)"><g><g><path d="m31.3 39.1h30c1.5 0 2.7-1.2 2.7-2.7v-27.5c0-1.5-1.2-2.7-2.7-2.7h-36.8c-1.5 0-2.7 1.2-2.7 2.7v9h6.7c1.5 0 2.8 1.2 2.8 2.8z" style="stroke-linecap: round; stroke-linejoin: round; stroke-miterlimit: 10;" fill="none" fill-opacity="1" stroke="#710bc0" stroke-opacity="1" data-original-stroke-color="#000000ff" stroke-width="2" data-original-stroke-width="2"/><g><path d="m25.2 17.9v-7.6h35.4v24.7h-29.3" style="stroke-linecap: round; stroke-linejoin: round; stroke-miterlimit: 10;" fill="none" fill-opacity="1" stroke="#710bc0" stroke-opacity="1" data-original-stroke-color="#000000ff" stroke-width="2" data-original-stroke-width="2"/></g><path d="m48.9 44.4h-12l1.2-5.3h9.5z" style="stroke-linecap: round; stroke-linejoin: round; stroke-miterlimit: 10;" fill="none" fill-opacity="1" stroke="#710bc0" stroke-opacity="1" data-original-stroke-color="#000000ff" stroke-width="2" data-original-stroke-width="2"/><path d="m51.3 48.3h-16.8l2.4-3.9h12z" style="stroke-linecap: round; stroke-linejoin: round; stroke-miterlimit: 10;" fill="none" fill-opacity="1" stroke="#710bc0" stroke-opacity="1" data-original-stroke-color="#000000ff" stroke-width="2" data-original-stroke-width="2"/><g><g><path d="m7.2 26.6v-6c0-1.5 1.2-2.7 2.7-2.7h18.7c1.5 0 2.7 1.2 2.7 2.7v25c0 1.5-1.2 2.7-2.7 2.7h-16.9" style="stroke-linecap: round; stroke-linejoin: round; stroke-miterlimit: 10;" fill="none" fill-opacity="1" stroke="#710bc0" stroke-opacity="1" data-original-stroke-color="#000000ff" stroke-width="2" data-original-stroke-width="2"/></g></g><g style="fill:none;stroke:#000;stroke-width:2;stroke-linecap:round;stroke-linejoin:round;stroke-miterlimit:10"><path d="m12.3 48.3h-8.8c-.9 0-1.5-.7-1.5-1.5v-18.6c0-.9.7-1.5 1.5-1.5h8.7c.9 0 1.5.7 1.5 1.5v18.6c.1.8-.6 1.5-1.4 1.5z" fill="none" fill-opacity="1" stroke="#710bc0" stroke-opacity="1" data-original-stroke-color="#000000ff" stroke-width="2" data-original-stroke-width="2"/><path d="m7.1 29.8h1.6" fill="none" fill-opacity="1" stroke="#710bc0" stroke-opacity="1" data-original-stroke-color="#000000ff" stroke-width="2" data-original-stroke-width="2"/><path d="m5.8 45.1h4.3" fill="none" fill-opacity="1" stroke="#710bc0" stroke-opacity="1" data-original-stroke-color="#000000ff" stroke-width="2" data-original-stroke-width="2"/><path d="m18.4 21.1h1.7" fill="none" fill-opacity="1" stroke="#710bc0" stroke-opacity="1" data-original-stroke-color="#000000ff" stroke-width="2" data-original-stroke-width="2"/><path d="m17.1 45.1h4.3" fill="none" fill-opacity="1" stroke="#710bc0" stroke-opacity="1" data-original-stroke-color="#000000ff" stroke-width="2" data-original-stroke-width="2"/><path d="m49.8 14.4 6.1 6.1" fill="none" fill-opacity="1" stroke="#710bc0" stroke-opacity="1" data-original-stroke-color="#000000ff" stroke-width="2" data-original-stroke-width="2"/><path d="m43 15.4 11.8 11.8" fill="none" fill-opacity="1" stroke="#710bc0" stroke-opacity="1" data-original-stroke-color="#000000ff" stroke-width="2" data-original-stroke-width="2"/></g></g><g style="fill:none;stroke:#000;stroke-width:2;stroke-linecap:round;stroke-linejoin:round;stroke-miterlimit:10"><path d="m44.2 59.8h-38.2c-1 0-1.7-.8-1.7-1.7v-2.4c0-1 .8-1.7 1.7-1.7h38.2c1 0 1.7.8 1.7 1.7v2.4c0 .9-.8 1.7-1.7 1.7z" fill="none" fill-opacity="1" stroke="#710bc0" stroke-opacity="1" data-original-stroke-color="#000000ff" stroke-width="2" data-original-stroke-width="2"/><path d="m61.8 59.8c0-3.2-2.7-5.9-5.9-5.9s-5.9 2.6-5.9 5.9z" fill="none" fill-opacity="1" stroke="#710bc0" stroke-opacity="1" data-original-stroke-color="#000000ff" stroke-width="2" data-original-stroke-width="2"/></g></g></g></svg>