<svg xmlns="http://www.w3.org/2000/svg" xmlns:xlink="http://www.w3.org/1999/xlink" version="1.1" id="Capa_1" x="0px" y="0px" viewBox="0 0 512 512" style="enable-background:new 0 0 512 512;" xml:space="preserve" width="300" height="300" xmlns:svgjs="http://svgjs.dev/svgjs"><g width="100%" height="100%" transform="matrix(1,0,0,1,0,0)"><g>
	<path style="stroke-linecap: round; stroke-linejoin: round; stroke-miterlimit: 10;" d="&#10;&#9;&#9;M504.5,372.446c0,62.438-47.248,115.108-111.827,131.536c-2.715,0.691-5.563,0.691-8.279,0&#10;&#9;&#9;c-64.579-16.427-111.827-69.098-111.827-131.536V284.4c0-7.397,4.903-13.897,12.015-15.929l99.4-28.4&#10;&#9;&#9;c2.975-0.85,6.128-0.85,9.102,0l99.4,28.4c7.112,2.032,12.015,8.533,12.015,15.929V372.446z" fill="none" fill-opacity="1" stroke="#710bc0" stroke-opacity="1" data-original-stroke-color="#000000ff" stroke-width="15" data-original-stroke-width="15"/>
	<path style="stroke-linecap: round; stroke-linejoin: round; stroke-miterlimit: 10;" d="&#10;&#9;&#9;M465.359,295.18c3.556,1.016,6.008,4.266,6.008,7.965v69.302c0,22.738-8.513,44.344-24.618,62.483&#10;&#9;&#9;c-14.289,16.093-33.85,28.353-55.83,35.136c-1.551,0.479-3.22,0.479-4.771,0c-21.979-6.783-41.541-19.043-55.829-35.136&#10;&#9;&#9;c-16.105-18.139-24.618-39.745-24.618-62.483v-69.302c0-3.698,2.452-6.949,6.008-7.965l74.55-21.3c1.487-0.425,3.064-0.425,4.551,0&#10;&#9;&#9;L465.359,295.18z" fill="none" fill-opacity="1" stroke="#710bc0" stroke-opacity="1" data-original-stroke-color="#000000ff" stroke-width="15" data-original-stroke-width="15"/>
	<g>
		<path style="stroke-linecap: round; stroke-linejoin: round; stroke-miterlimit: 10;" d="&#10;&#9;&#9;&#9;M377.409,399.897l-35.624-30.198c-3.586-3.036-3.932-8.444-0.761-11.911l11.419-12.49c2.902-3.174,7.751-3.599,11.161-0.978&#10;&#9;&#9;&#9;l14.092,11.154c1.569,1.206,3.771,1.133,5.258-0.173l30.45-26.751c3.416-3.001,8.613-2.688,11.643,0.702l11.059,12.371&#10;&#9;&#9;&#9;c3.06,3.423,2.752,8.683-0.688,11.725l-52.588,46.49C381.288,401.202,378.98,401.227,377.409,399.897z" fill="none" fill-opacity="1" stroke="#710bc0" stroke-opacity="1" data-original-stroke-color="#000000ff" stroke-width="15" data-original-stroke-width="15"/>
	</g>
	<path style="stroke-linecap: round; stroke-linejoin: round; stroke-miterlimit: 10;" d="&#10;&#9;&#9;M7.5,106.9v314.767c0,9.149,7.417,16.567,16.567,16.567h267.516" fill="none" fill-opacity="1" stroke="#710bc0" stroke-opacity="1" data-original-stroke-color="#000000ff" stroke-width="15" data-original-stroke-width="15"/>
	<path style="stroke-linecap: round; stroke-linejoin: round; stroke-miterlimit: 10;" d="&#10;&#9;&#9;M338.833,252.97V113.762c0-4.394-1.746-8.608-4.852-11.715l-89.696-89.695c-3.107-3.107-7.321-4.852-11.714-4.852H24.067&#10;&#9;&#9;C14.917,7.5,7.5,14.917,7.5,24.067v48.767" fill="none" fill-opacity="1" stroke="#710bc0" stroke-opacity="1" data-original-stroke-color="#000000ff" stroke-width="15" data-original-stroke-width="15"/>
	<path style="stroke-linecap: round; stroke-linejoin: round; stroke-miterlimit: 10;" d="&#10;&#9;&#9;M371.967,243.504V73.767c0-9.149-7.417-16.567-16.567-16.567h-66.267" fill="none" fill-opacity="1" stroke="#710bc0" stroke-opacity="1" data-original-stroke-color="#000000ff" stroke-width="15" data-original-stroke-width="15"/>
	
		<line style="stroke-linecap: round; stroke-linejoin: round; stroke-miterlimit: 10;" x1="249.66" y1="471.367" x2="320.352" y2="471.367" fill="none" fill-opacity="1" stroke="#710bc0" stroke-opacity="1" data-original-stroke-color="#000000ff" stroke-width="15" data-original-stroke-width="15"/>
	<path style="stroke-linecap: round; stroke-linejoin: round; stroke-miterlimit: 10;" d="&#10;&#9;&#9;M57.2,438.233V454.8c0,9.149,7.417,16.567,16.567,16.567H213.55" fill="none" fill-opacity="1" stroke="#710bc0" stroke-opacity="1" data-original-stroke-color="#000000ff" stroke-width="15" data-original-stroke-width="15"/>
	<path style="stroke-linecap: round; stroke-linejoin: round; stroke-miterlimit: 10;" d="&#10;&#9;&#9;M337.341,106.9H256c-9.15,0-16.567-7.417-16.567-16.567V8.993" fill="none" fill-opacity="1" stroke="#710bc0" stroke-opacity="1" data-original-stroke-color="#000000ff" stroke-width="15" data-original-stroke-width="15"/>
	<path style="stroke-linecap: round; stroke-linejoin: round; stroke-miterlimit: 10;" d="&#10;&#9;&#9;M239.433,73.767h-124.25c-4.575,0-8.283-3.709-8.283-8.283V48.917c0-4.575,3.709-8.283,8.283-8.283h124.25" fill="none" fill-opacity="1" stroke="#710bc0" stroke-opacity="1" data-original-stroke-color="#000000ff" stroke-width="15" data-original-stroke-width="15"/>
	<g>
		<path style="stroke-linecap: round; stroke-linejoin: round; stroke-miterlimit: 10;" d="&#10;&#9;&#9;&#9;M123.75,222.867H48.633c-4.418,0-8-3.582-8-8v-83.4c0-4.418,3.582-8,8-8h75.117c4.418,0,8,3.582,8,8v83.4&#10;&#9;&#9;&#9;C131.75,219.285,128.168,222.867,123.75,222.867z" fill="none" fill-opacity="1" stroke="#710bc0" stroke-opacity="1" data-original-stroke-color="#000000ff" stroke-width="15" data-original-stroke-width="15"/>
		
			<line style="stroke-linecap: round; stroke-linejoin: round; stroke-miterlimit: 10;" x1="98.617" y1="388.533" x2="40.633" y2="388.533" fill="none" fill-opacity="1" stroke="#710bc0" stroke-opacity="1" data-original-stroke-color="#000000ff" stroke-width="15" data-original-stroke-width="15"/>
		
			<line style="stroke-linecap: round; stroke-linejoin: round; stroke-miterlimit: 10;" x1="73.767" y1="355.4" x2="40.633" y2="355.4" fill="none" fill-opacity="1" stroke="#710bc0" stroke-opacity="1" data-original-stroke-color="#000000ff" stroke-width="15" data-original-stroke-width="15"/>
		<path style="stroke-linecap: round; stroke-linejoin: round; stroke-miterlimit: 10;" d="&#10;&#9;&#9;&#9;M214.867,156.6h-41.983c-4.418,0-8-3.582-8-8v-17.133c0-4.418,3.582-8,8-8h41.983c4.418,0,8,3.582,8,8V148.6&#10;&#9;&#9;&#9;C222.867,153.018,219.285,156.6,214.867,156.6z" fill="none" fill-opacity="1" stroke="#710bc0" stroke-opacity="1" data-original-stroke-color="#000000ff" stroke-width="15" data-original-stroke-width="15"/>
		
			<line style="stroke-linecap: round; stroke-linejoin: round; stroke-miterlimit: 10;" x1="164.883" y1="189.733" x2="247.717" y2="189.733" fill="none" fill-opacity="1" stroke="#710bc0" stroke-opacity="1" data-original-stroke-color="#000000ff" stroke-width="15" data-original-stroke-width="15"/>
		
			<line style="stroke-linecap: round; stroke-linejoin: round; stroke-miterlimit: 10;" x1="280.85" y1="189.733" x2="305.7" y2="189.733" fill="none" fill-opacity="1" stroke="#710bc0" stroke-opacity="1" data-original-stroke-color="#000000ff" stroke-width="15" data-original-stroke-width="15"/>
		
			<line style="stroke-linecap: round; stroke-linejoin: round; stroke-miterlimit: 10;" x1="305.7" y1="222.867" x2="222.867" y2="222.867" fill="none" fill-opacity="1" stroke="#710bc0" stroke-opacity="1" data-original-stroke-color="#000000ff" stroke-width="15" data-original-stroke-width="15"/>
		
			<line style="stroke-linecap: round; stroke-linejoin: round; stroke-miterlimit: 10;" x1="189.733" y1="222.867" x2="164.883" y2="222.867" fill="none" fill-opacity="1" stroke="#710bc0" stroke-opacity="1" data-original-stroke-color="#000000ff" stroke-width="15" data-original-stroke-width="15"/>
		
			<line style="stroke-linecap: round; stroke-linejoin: round; stroke-miterlimit: 10;" x1="48.917" y1="256" x2="131.75" y2="256" fill="none" fill-opacity="1" stroke="#710bc0" stroke-opacity="1" data-original-stroke-color="#000000ff" stroke-width="15" data-original-stroke-width="15"/>
		
			<line style="stroke-linecap: round; stroke-linejoin: round; stroke-miterlimit: 10;" x1="222.867" y1="256" x2="305.7" y2="256" fill="none" fill-opacity="1" stroke="#710bc0" stroke-opacity="1" data-original-stroke-color="#000000ff" stroke-width="15" data-original-stroke-width="15"/>
		
			<line style="stroke-linecap: round; stroke-linejoin: round; stroke-miterlimit: 10;" x1="164.883" y1="256" x2="189.733" y2="256" fill="none" fill-opacity="1" stroke="#710bc0" stroke-opacity="1" data-original-stroke-color="#000000ff" stroke-width="15" data-original-stroke-width="15"/>
		
			<line style="stroke-linecap: round; stroke-linejoin: round; stroke-miterlimit: 10;" x1="247.717" y1="289.133" x2="106.9" y2="289.133" fill="none" fill-opacity="1" stroke="#710bc0" stroke-opacity="1" data-original-stroke-color="#000000ff" stroke-width="15" data-original-stroke-width="15"/>
		
			<line style="stroke-linecap: round; stroke-linejoin: round; stroke-miterlimit: 10;" x1="73.767" y1="289.133" x2="48.917" y2="289.133" fill="none" fill-opacity="1" stroke="#710bc0" stroke-opacity="1" data-original-stroke-color="#000000ff" stroke-width="15" data-original-stroke-width="15"/>
	</g>
	<path style="stroke-linecap: round; stroke-linejoin: round; stroke-miterlimit: 10;" d="&#10;&#9;&#9;M272.567,338.833h-24.85c-9.15,0-16.567,7.417-16.567,16.567v33.133c0,9.149,7.417,16.567,16.567,16.567h29.288" fill="none" fill-opacity="1" stroke="#710bc0" stroke-opacity="1" data-original-stroke-color="#000000ff" stroke-width="15" data-original-stroke-width="15"/>
</g></g></svg>