<svg id="fc59f4ff-ab39-467d-aba8-448eb1880f16" viewBox="0 0 64 64" xmlns="http://www.w3.org/2000/svg" data-name="Line" width="300" height="300" version="1.1" xmlns:xlink="http://www.w3.org/1999/xlink" xmlns:svgjs="http://svgjs.dev/svgjs"><g width="100%" height="100%" transform="matrix(1,0,0,1,0,0)"><path d="m59.12641 56.70822-3.38091-30.25041a1.00041 1.00041 0 0 0 -1.98831.22174l3.33892 29.87045-5.80086-5.08143v-18.90277a1.0001 1.0001 0 0 0 -2 .00006v18.9056l-5.49125 4.96521 4.85035-38.23776h3.29717a.95834.95834 0 0 1 .95606.85157l.41016 3.65a1.00052 1.00052 0 0 0 1.98825-.22369l-.4101-3.64892a2.957 2.957 0 0 0 -2.94437-2.62894l-6.96983.00977a11.83961 11.83961 0 0 0 -1.74526-7.38.99989.99989 0 0 0 -1.66983 1.09965 10.01763 10.01763 0 0 1 1.41493 6.2803h-5.0517v-1.53372a10.59852 10.59852 0 0 0 -4.397-8.62078 8.86408 8.86408 0 0 1 5.49662 1.33455 1.00006 1.00006 0 0 0 1.08394-1.6807 10.673 10.673 0 0 0 -9.32639-1.09936 10.6692 10.6692 0 0 0 -3.53212-.60864 10.87761 10.87761 0 0 0 -10.68459 12.20871l-4.06952-.00006a2.9722 2.9722 0 0 0 -2.93168 2.587l-4.69147 37.88474a2.98264 2.98264 0 0 0 2.93363 3.31883l3.5899.00006a1.00015 1.00015 0 0 0 -.00006-2h-3.58984a.96776.96776 0 0 1 -.94825-1.07719l4.68952-37.87209a.96509.96509 0 0 1 .94825-.84132h4.06939v5.89412h-1.28322a1 1 0 0 0 0 2h4.56647a1.00011 1.00011 0 0 0 -.00006-2h-1.28316v-5.89413h17.35961v5.89413h-1.28322a1.00011 1.00011 0 0 0 0 2h4.56647a1.00012 1.00012 0 0 0 -.00006-2h-1.28316v-5.89413h8.70717l-5.04794 39.79059h-26.18786a1.00016 1.00016 0 0 0 .00006 2h40.78074a2.99314 2.99314 0 0 0 2.94441-3.29104zm-35.49463-40.49957h-5.06159v-1.53372a8.68947 8.68947 0 0 1 8.68469-8.67493c.26142 0 .52033.0152.7776.0379a10.592 10.592 0 0 0 -4.4007 8.64093zm12.298 0h-10.298v-1.52981a8.59432 8.59432 0 0 1 5.172-7.91509c3.79477 1.70218 5.45055 5.42037 5.12602 9.4449zm9.12836 41.79061 5.24393-4.74126 5.41236 4.74128z" fill="#710bc0" fill-opacity="1" data-original-color="#000000ff" stroke="none" stroke-opacity="1"/><path d="m36.21008 42.92038 2.06741-2.40671a3.5931 3.5931 0 0 0 .00092-4.55817l-3.46093-4.01031a2.86648 2.86648 0 0 0 -2.18557-1.0464h-12.51091a2.9093 2.9093 0 0 0 -2.1885 1.03859l-3.4395 4.00786a3.59525 3.59525 0 0 0 -.0293 4.5655l11.2023 12.38694a1.03267 1.03267 0 0 0 1.4316.00043l6.5148-6.93955a1.00044 1.00044 0 0 0 -1.52157-1.29878l-3.6013 3.95013c.94709-3.257 2.14248-7.47447 2.63266-9.38435h5.62514l-2.05484 2.39212a1.0002 1.0002 0 0 0 1.51759 1.3027zm-11.72959-10.02156h3.352c.33332 1.15352.843 3.12656 1.173 4.32672h-5.69763c.11506-.41664.96791-3.6184 1.17263-4.32672zm-5.04017.353a.9373.9373 0 0 1 .68067-.353h2.28354c-.29206 1.02668-.84626 3.16886-1.16939 4.32672h-5.20551zm-3.44463 5.97371h5.21943c.09589.314 1.86331 5.928 2.936 9.25526zm10.35885 9.58177c-.91841-2.88066-2.33762-7.31242-3.04649-9.58174h5.7491c-.5517 2.04019-1.73794 6.28506-2.70261 9.58174zm4.72376-11.58176c-.32313-1.15792-.87758-3.3001-1.16988-4.32672h2.72349a.88273.88273 0 0 1 .66309.34326l3.43828 3.98346z" fill="#710bc0" fill-opacity="1" data-original-color="#000000ff" stroke="none" stroke-opacity="1"/></g></svg>