<?xml version="1.0" encoding="UTF-8" standalone="no"?>
<!-- Created with Inkscape (http://www.inkscape.org/) -->

<svg
   version="1.1"
   id="svg4425"
   xml:space="preserve"
   width="682.66669"
   height="682.66669"
   viewBox="0 0 682.66669 682.66669"
   xmlns="http://www.w3.org/2000/svg"
   xmlns:svg="http://www.w3.org/2000/svg"><defs
     id="defs4429"><clipPath
       clipPathUnits="userSpaceOnUse"
       id="clipPath4439"><path
         d="M 0,512 H 512 V 0 H 0 Z"
         id="path4437" /></clipPath></defs><g
     id="g4431"
     transform="matrix(1.3333333,0,0,-1.3333333,0,682.66667)"><g
       id="g4433"><g
         id="g4435"
         clip-path="url(#clipPath4439)"><g
           id="g4441"
           transform="translate(477.0273,300.2148)"><path
             d="m 0,0 v -32.092 c 0,-4.079 -3.316,-7.392 -7.398,-7.392 h -94.789 c -4.082,0 -7.427,3.313 -7.427,7.392 V 0"
             style="fill:none;stroke:#710BC0;stroke-width:20.005;stroke-linecap:round;stroke-linejoin:round;stroke-miterlimit:10;stroke-dasharray:none;stroke-opacity:1"
             id="path4443" /></g><g
           id="g4445"
           transform="translate(147.2227,300.2148)"><path
             d="m 0,0 v -32.092 c 0,-4.079 -3.345,-7.392 -7.398,-7.392 h -26.248 m 0,0 h -42.236 -26.333 c -4.054,0 -7.399,3.313 -7.399,7.392 V 0"
             style="fill:none;stroke:#710BC0;stroke-width:20.005;stroke-linecap:round;stroke-linejoin:round;stroke-miterlimit:10;stroke-dasharray:none;stroke-opacity:1"
             id="path4447" /></g><g
           id="g4449"
           transform="translate(113.5762,260.7305)"><path
             d="m 0,0 v -165.303 m -42.236,0 V 0"
             style="fill:none;stroke:#710BC0;stroke-width:20.005;stroke-linecap:round;stroke-linejoin:round;stroke-miterlimit:10;stroke-dasharray:none;stroke-opacity:1"
             id="path4451" /></g><g
           id="g4453"
           transform="translate(443.4092,260.7305)"><path
             d="m 0,0 v -165.303 m -42.235,0 V 0"
             style="fill:none;stroke:#710BC0;stroke-width:20.005;stroke-linecap:round;stroke-linejoin:round;stroke-miterlimit:10;stroke-dasharray:none;stroke-opacity:1"
             id="path4455" /></g><g
           id="g4457"
           transform="translate(35.228,57.7002)"><path
             d="m 0,0 v 37.728 h 355.542 85.974 V 0"
             style="fill:none;stroke:#710BC0;stroke-width:20.005;stroke-linecap:round;stroke-linejoin:round;stroke-miterlimit:10;stroke-dasharray:none;stroke-opacity:1"
             id="path4459" /></g><g
           id="g4461"
           transform="translate(259.3589,95.4277)"><path
             d="M 0,0 V 142.501 H -66.5 V 0"
             style="fill:none;stroke:#710BC0;stroke-width:20.005;stroke-linecap:round;stroke-linejoin:round;stroke-miterlimit:10;stroke-dasharray:none;stroke-opacity:1"
             id="path4463" /></g><g
           id="g4465"
           transform="translate(325.8867,95.4277)"><path
             d="M 0,0 V 142.501 H -66.528"
             style="fill:none;stroke:#710BC0;stroke-width:20.005;stroke-linecap:round;stroke-linejoin:round;stroke-miterlimit:10;stroke-dasharray:none;stroke-opacity:1"
             id="path4467" /></g><g
           id="g4469"
           transform="translate(226.7329,170.1768)"><path
             d="M 0,0 V -0.17"
             style="fill:none;stroke:#710BC0;stroke-width:20.005;stroke-linecap:round;stroke-linejoin:round;stroke-miterlimit:10;stroke-dasharray:none;stroke-opacity:1"
             id="path4471" /></g><g
           id="g4473"
           transform="translate(292.0137,170.1768)"><path
             d="M 0,0 V -0.17"
             style="fill:none;stroke:#710BC0;stroke-width:20.005;stroke-linecap:round;stroke-linejoin:round;stroke-miterlimit:10;stroke-dasharray:none;stroke-opacity:1"
             id="path4475" /></g><g
           id="g4477"
           transform="translate(28.8784,20)"><path
             d="m 0,0 h 454.243 c 10.375,0 18.879,8.469 18.879,18.864 0,10.366 -8.504,18.836 -18.879,18.836 H 0 C -10.375,37.7 -18.878,29.23 -18.878,18.864 -18.878,8.469 -10.375,0 0,0 Z"
             style="fill:none;stroke:#710BC0;stroke-width:20.005;stroke-linecap:round;stroke-linejoin:round;stroke-miterlimit:10;stroke-dasharray:none;stroke-opacity:1"
             id="path4479" /></g><g
           id="g4481"
           transform="translate(255.9858,274.9209)"><path
             d="m 0,0 c 50.966,0 92.521,41.523 92.521,92.451 0,50.9 -41.555,92.451 -92.521,92.451 -50.938,0 -92.521,-41.551 -92.521,-92.451 C -92.521,41.523 -50.938,0 0,0 Z"
             style="fill:none;stroke:#710BC0;stroke-width:20.005;stroke-linecap:round;stroke-linejoin:round;stroke-miterlimit:10;stroke-dasharray:none;stroke-opacity:1"
             id="path4483" /></g><g
           id="g4485"
           transform="translate(72.9561,405.0439)"><path
             d="M 0,0 -42.632,-37.021 V -67.102 H 95.299 c -3.09,9.235 -4.79,19.148 -4.79,29.43 0,51.041 41.441,92.451 92.521,92.451 51.107,0 92.521,-41.41 92.521,-92.451 0,-10.282 -1.673,-20.195 -4.791,-29.43 h 132.404 v 30.081 L 260.414,86.956 H 180.28 100.118 L 57.684,50.077"
             style="fill:none;stroke:#710BC0;stroke-width:20.005;stroke-linecap:round;stroke-linejoin:round;stroke-miterlimit:10;stroke-dasharray:none;stroke-opacity:1"
             id="path4487" /></g><g
           id="g4489"
           transform="translate(343.7163,337.9424)"><path
             d="M 0,0 H 152.926 V -37.728 H -24.15 C -13.266,-27.446 -4.875,-14.53 0,0 Z m -326.29,0 h 150.829 c 4.876,-14.53 13.266,-27.446 24.15,-37.728 h -70.779 -9.213 -94.987 z"
             style="fill:none;stroke:#710BC0;stroke-width:20.005;stroke-linecap:round;stroke-linejoin:round;stroke-miterlimit:10;stroke-dasharray:none;stroke-opacity:1"
             id="path4491" /></g><g
           id="g4493"
           transform="translate(288.2153,351.9355)"><path
             d="m 0,0 c 0,-7.932 -2.296,-14.333 -6.888,-19.119 -4.592,-4.787 -10.148,-7.96 -16.696,-9.489 v -11.727 c 0,-4.956 -4.224,-9.035 -9.184,-9.035 -4.961,0 -9.014,4.079 -9.014,9.035 v 11.642 c -4.082,0.934 -7.767,2.436 -11.055,4.532 -3.373,2.124 -5.726,4.022 -7.03,5.665 l -2.012,2.605 c -8.306,10.877 5.414,22.491 13.407,14.106 0.993,-1.02 1.985,-2.237 3.175,-3.54 3.345,-3.711 8.249,-4.306 12.217,-4.306 7.568,0 11.338,3.116 11.338,9.348 0,2.237 -1.417,3.965 -4.28,5.182 -2.863,1.247 -6.349,2.324 -10.431,3.315 -4.082,0.963 -8.164,2.265 -12.245,3.88 -4.082,1.643 -7.54,4.447 -10.404,8.441 -2.862,3.965 -4.308,9.007 -4.308,15.125 0,6.147 1.984,11.613 5.839,16.542 3.799,4.871 9.298,8.186 15.931,9.46 l 0.028,10.537 c 0,4.956 4.053,9.035 9.014,9.035 4.96,0 9.014,-4.079 9.014,-9.035 v -3.767 -6.883 c 2.863,-0.623 5.471,-1.501 7.823,-2.606 2.353,-1.133 3.969,-2.04 4.904,-2.748 l 1.361,-1.246 c 11.877,-8.865 0.425,-24.614 -9.808,-16.003 -6.945,5.834 -22.648,7.11 -22.648,-3.569 0,-2.266 1.049,-4.079 3.146,-5.439 2.07,-1.387 4.649,-2.293 7.71,-2.747 3.09,-0.481 6.435,-1.246 10.12,-2.295 3.685,-1.076 7.058,-2.322 10.119,-3.766 3.062,-1.416 5.641,-3.938 7.739,-7.563 C -1.049,9.941 0,5.409 0,0"
             style="fill:#710BC0;fill-opacity:1;fill-rule:nonzero;stroke:none"
             id="path4495" /></g><g
           id="g4497"
           transform="translate(288.2153,351.9355)"><path
             d="m 0,0 c 0,-7.932 -2.296,-14.333 -6.888,-19.119 -4.592,-4.787 -10.148,-7.96 -16.696,-9.489 v -11.727 c 0,-4.956 -4.224,-9.035 -9.184,-9.035 -4.961,0 -9.014,4.079 -9.014,9.035 v 11.642 c -4.082,0.934 -7.767,2.436 -11.055,4.532 -3.373,2.124 -5.726,4.022 -7.03,5.665 l -2.012,2.605 c -8.306,10.877 5.414,22.491 13.407,14.106 0.993,-1.02 1.985,-2.237 3.175,-3.54 3.345,-3.711 8.249,-4.306 12.217,-4.306 7.568,0 11.338,3.116 11.338,9.348 0,2.237 -1.417,3.965 -4.28,5.182 -2.863,1.247 -6.349,2.324 -10.431,3.315 -4.082,0.963 -8.164,2.265 -12.245,3.88 -4.082,1.643 -7.54,4.447 -10.404,8.441 -2.862,3.965 -4.308,9.007 -4.308,15.125 0,6.147 1.984,11.613 5.839,16.542 3.799,4.871 9.298,8.186 15.931,9.46 l 0.028,10.537 c 0,4.956 4.053,9.035 9.014,9.035 4.96,0 9.014,-4.079 9.014,-9.035 v -3.767 -6.883 c 2.863,-0.623 5.471,-1.501 7.823,-2.606 2.353,-1.133 3.969,-2.04 4.904,-2.748 l 1.361,-1.246 c 11.877,-8.865 0.425,-24.614 -9.808,-16.003 -6.945,5.834 -22.648,7.11 -22.648,-3.569 0,-2.266 1.049,-4.079 3.146,-5.439 2.07,-1.387 4.649,-2.293 7.71,-2.747 3.09,-0.481 6.435,-1.246 10.12,-2.295 3.685,-1.076 7.058,-2.322 10.119,-3.766 3.062,-1.416 5.641,-3.938 7.739,-7.563 C -1.049,9.941 0,5.409 0,0 Z"
             style="fill:none;stroke:#710BC0;stroke-width:1;stroke-linecap:butt;stroke-linejoin:miter;stroke-miterlimit:10;stroke-dasharray:none;stroke-opacity:1"
             id="path4499" /></g><g
           id="g4501"
           transform="translate(103.5132,431.3291)"><path
             d="M 0,0 0.142,0.113"
             style="fill:none;stroke:#710BC0;stroke-width:20.005;stroke-linecap:round;stroke-linejoin:round;stroke-miterlimit:10;stroke-dasharray:none;stroke-opacity:1"
             id="path4503" /></g></g></g></g></svg>
